<svg width="500" height="200" viewBox="0 0 500 200" xmlns="http://www.w3.org/2000/svg" font-family="Courier New,monospace">
  <rect width="500" height="200" rx="12" fill="#010208"/>
  <text x="250" y="24" text-anchor="middle" font-size="11" fill="#0088ff" letter-spacing="3">SUSPICION SCORE BREAKDOWN</text>
  <text x="14" y="50" font-size="9" fill="#00ffcc">behavioral variance</text>
  <rect x="160" y="38" width="175" height="14" rx="7" fill="#00ffcc" opacity="0.5"/>
  <text x="344" y="50" font-size="9" fill="#00ffcc">35%</text>
  <text x="420" y="50" font-size="8" fill="#445566">low = bot-like</text>
  <text x="14" y="80" font-size="9" fill="#0088ff">vote correlation</text>
  <rect x="160" y="68" width="150" height="14" rx="7" fill="#0088ff" opacity="0.5"/>
  <text x="318" y="80" font-size="9" fill="#0088ff">30%</text>
  <text x="420" y="80" font-size="8" fill="#445566">high = collusion</text>
  <text x="14" y="110" font-size="9" fill="#aa00ff">timing regularity</text>
  <rect x="160" y="98" width="100" height="14" rx="7" fill="#aa00ff" opacity="0.5"/>
  <text x="268" y="110" font-size="9" fill="#aa00ff">20%</text>
  <text x="420" y="110" font-size="8" fill="#445566">regular = scripted</text>
  <text x="14" y="140" font-size="9" fill="#ff6600">role signal</text>
  <rect x="160" y="128" width="75" height="14" rx="7" fill="#ff6600" opacity="0.5"/>
  <text x="243" y="140" font-size="9" fill="#ff6600">15%</text>
  <text x="420" y="140" font-size="8" fill="#445566">hidden in ZK</text>
  <line x1="160" y1="158" x2="490" y2="158" stroke="#333333" stroke-width="0.5"/>
  <rect x="160" y="162" width="325" height="28" rx="6" fill="rgba(255,50,50,0.06)" stroke="rgba(255,50,50,0.3)" stroke-width="0.8"/>
  <text x="322" y="178" text-anchor="middle" font-size="9" fill="#ff4444" letter-spacing="1">score above 0.65 = flagged as suspect</text>
</svg>
