<svg width="560" height="80" viewBox="0 0 560 80" xmlns="http://www.w3.org/2000/svg" font-family="Courier New,monospace">
  <rect width="560" height="80" rx="12" fill="#010208"/>
  <rect x="10" y="14" width="120" height="52" rx="8" fill="rgba(0,255,204,0.06)" stroke="#00ffcc" stroke-width="1"/>
  <text x="70" y="36" text-anchor="middle" font-size="11" fill="#00ffcc">AI watches</text>
  <text x="70" y="52" text-anchor="middle" font-size="9" fill="#445566">behavior patterns</text>
  <text x="70" y="63" text-anchor="middle" font-size="9" fill="#445566">vote timing</text>
  <polygon points="134,40 148,36 148,44" fill="#00ffcc" opacity="0.6"/>
  <rect x="152" y="14" width="120" height="52" rx="8" fill="rgba(0,136,255,0.06)" stroke="#0088ff" stroke-width="1"/>
  <text x="212" y="36" text-anchor="middle" font-size="11" fill="#0088ff">ZK proof</text>
  <text x="212" y="52" text-anchor="middle" font-size="9" fill="#445566">Groth16 circuit</text>
  <text x="212" y="63" text-anchor="middle" font-size="9" fill="#445566">commitment</text>
  <polygon points="276,40 290,36 290,44" fill="#0088ff" opacity="0.6"/>
  <rect x="294" y="14" width="120" height="52" rx="8" fill="rgba(170,0,255,0.06)" stroke="#aa00ff" stroke-width="1"/>
  <text x="354" y="36" text-anchor="middle" font-size="11" fill="#aa00ff">On-chain</text>
  <text x="354" y="52" text-anchor="middle" font-size="9" fill="#445566">Etherlink tx</text>
  <text x="354" y="63" text-anchor="middle" font-size="9" fill="#445566">explorer link</text>
  <polygon points="418,40 432,36 432,44" fill="#aa00ff" opacity="0.6"/>
  <rect x="436" y="14" width="114" height="52" rx="8" fill="rgba(0,255,136,0.06)" stroke="#00ff88" stroke-width="1"/>
  <text x="493" y="36" text-anchor="middle" font-size="11" fill="#00ff88">Verdict</text>
  <text x="493" y="52" text-anchor="middle" font-size="9" fill="#445566">accept or</text>
  <text x="493" y="63" text-anchor="middle" font-size="9" fill="#445566">dispute</text>
</svg>
