<svg width="500" height="260" viewBox="0 0 500 260" xmlns="http://www.w3.org/2000/svg" font-family="Courier New,monospace">
  <rect width="500" height="260" rx="12" fill="#010208"/>
  <circle cx="50" cy="50" r="18" fill="rgba(0,255,204,0.1)" stroke="#00ffcc" stroke-width="1.5"/>
  <text x="50" y="54" text-anchor="middle" font-size="13" fill="#00ffcc" font-weight="bold">1</text>
  <text x="80" y="46" font-size="10" fill="#cccccc">Witness Commitment</text>
  <text x="80" y="60" font-size="9" fill="#445566">behavior logs hashed into witness</text>
  <circle cx="50" cy="100" r="18" fill="rgba(0,136,255,0.1)" stroke="#0088ff" stroke-width="1.5"/>
  <text x="50" y="104" text-anchor="middle" font-size="13" fill="#0088ff" font-weight="bold">2</text>
  <text x="80" y="96" font-size="10" fill="#cccccc">Constraint System</text>
  <text x="80" y="110" font-size="9" fill="#445566">inference encoded as R1CS constraints</text>
  <circle cx="50" cy="150" r="18" fill="rgba(170,0,255,0.1)" stroke="#aa00ff" stroke-width="1.5"/>
  <text x="50" y="154" text-anchor="middle" font-size="13" fill="#aa00ff" font-weight="bold">3</text>
  <text x="80" y="146" font-size="10" fill="#cccccc">Groth16 Prover</text>
  <text x="80" y="160" font-size="9" fill="#445566">proof pi generated from witness + proving key</text>
  <circle cx="50" cy="200" r="18" fill="rgba(255,102,0,0.1)" stroke="#ff6600" stroke-width="1.5"/>
  <text x="50" y="204" text-anchor="middle" font-size="13" fill="#ff6600" font-weight="bold">4</text>
  <text x="80" y="196" font-size="10" fill="#cccccc">On-Chain Settlement</text>
  <text x="80" y="210" font-size="9" fill="#445566">TribunalVerifier.recordVerdict() on Etherlink</text>
  <line x1="50" y1="68" x2="50" y2="82" stroke="#333333" stroke-width="1" stroke-dasharray="3,2"/>
  <line x1="50" y1="118" x2="50" y2="132" stroke="#333333" stroke-width="1" stroke-dasharray="3,2"/>
  <line x1="50" y1="168" x2="50" y2="182" stroke="#333333" stroke-width="1" stroke-dasharray="3,2"/>
  <rect x="14" y="228" width="220" height="24" rx="6" fill="rgba(255,50,50,0.05)" stroke="rgba(255,50,50,0.25)" stroke-width="0.8"/>
  <text x="124" y="244" text-anchor="middle" font-size="9" fill="#ff4444" letter-spacing="1">HIDDEN: weights · scores · raw data</text>
  <rect x="244" y="228" width="242" height="24" rx="6" fill="rgba(0,255,204,0.05)" stroke="rgba(0,255,204,0.2)" stroke-width="0.8"/>
  <text x="365" y="244" text-anchor="middle" font-size="9" fill="#00ffcc" letter-spacing="1">PUBLIC: commitment · hash · verdict</text>
</svg>
